<?xml version="1.0" encoding="UTF-8" standalone="no"?>
<svg
   xmlns:dc="http://purl.org/dc/elements/1.1/"
   xmlns:cc="http://creativecommons.org/ns#"
   xmlns:rdf="http://www.w3.org/1999/02/22-rdf-syntax-ns#"
   xmlns:svg="http://www.w3.org/2000/svg"
   xmlns="http://www.w3.org/2000/svg"
   viewBox="0 0 132 97.333336"
   height="97.333336"
   width="132"
   xml:space="preserve"
   id="svg2"
   version="1.1"><metadata
     id="metadata8"><rdf:RDF><cc:Work
         rdf:about=""><dc:format>image/svg+xml</dc:format><dc:type
           rdf:resource="http://purl.org/dc/dcmitype/StillImage" /></cc:Work></rdf:RDF></metadata><defs
     id="defs6" /><g
     transform="matrix(1.3333333,0,0,-1.3333333,0,97.333333)"
     id="g10"><g
       transform="scale(0.1)"
       id="g12"><path
         id="path14"
         style="fill:#ec008c;fill-opacity:1;fill-rule:nonzero;stroke:none"
         d="m 216,634.961 10.5,7.84 17.852,-34.68 L 264,710 h 705 v -3.75 H 267.098 L 246.219,598 h -3.821 l -19.855,38.57 -4.973,-3.715" /><path
         id="path16"
         style="fill:#ec008c;fill-opacity:1;fill-rule:nonzero;stroke:none"
         d="m 216,483.672 10.5,6.93 17.875,-30.547 L 264,550 h 547 v -3.75 H 267.02 L 246.238,451 h -3.84 l -19.816,33.867 -5.137,-3.387" /><path
         id="path18"
         style="fill:#ec008c;fill-opacity:1;fill-rule:nonzero;stroke:none"
         d="m 216,333.02 10.5,6.582 17.887,-28.954 L 264,396 h 234 v -3.75 H 266.984 L 246.246,302 h -3.848 l -19.8,32.055 -5.203,-3.258" /><path
         id="path20"
         style="fill:#ec008c;fill-opacity:1;fill-rule:nonzero;stroke:none"
         d="m 216,187.059 10.5,5.742 L 244.422,167.68 264,242 h 205 v -3.75 H 266.891 L 246.277,160 h -3.879 l -19.757,27.699 -5.383,-2.941" /><g
         transform="scale(10)"
         id="g22"><text
           id="text34"
           style="font-variant:normal;font-weight:300;font-size:8px;font-family:UniversLT;-inkscape-font-specification:UniversLT-Light;writing-mode:lr-tb;fill:#ec008c;fill-opacity:1;fill-rule:nonzero;stroke:none"
           transform="matrix(1,0,0,-1,1.7,62.4)"><tspan
             id="tspan24"
             y="0"
             x="0 24.799999 27.099998 42.5 51.099998 63.5 65.900002 81.299995 89.699997">d(xx)(yy)</tspan><tspan
             id="tspan26"
             y="16"
             x="0 24.799999 27 38.700001 43 55.299999 57.5 69.400002 73.799995">d(63)(84)</tspan><tspan
             id="tspan28"
             y="31.4"
             x="0 25 40">d34</tspan><tspan
             id="tspan30"
             y="45.599998"
             x="0 25 36.099998 40.399998">d916</tspan><tspan
             id="tspan32"
             y="58.299999"
             x="0 19.4">d5</tspan></text>
<text
           id="text56"
           style="font-variant:normal;font-weight:300;font-size:4.625px;font-family:UniversLT;-inkscape-font-specification:UniversLT-Light;writing-mode:lr-tb;fill:#ec008c;fill-opacity:1;fill-rule:nonzero;stroke:none"
           transform="matrix(1,0,0,-1,6.3,60.4)"><tspan
             id="tspan36"
             y="0"
             x="0 3.1000004 26.79998 42.499958">ABBA</tspan><tspan
             id="tspan38"
             y="-5.5999999"
             x="48.599998">2</tspan><tspan
             id="tspan40"
             y="0"
             x="65.400002 81.099976">BA</tspan><tspan
             id="tspan42"
             y="-5.5999999"
             x="87.199997">2</tspan><tspan
             id="tspan44"
             y="16"
             x="0 3.1000004">AB</tspan><tspan
             id="tspan46"
             y="10.4"
             x="40.5 71.300003">22</tspan><tspan
             id="tspan48"
             y="31.4"
             x="0 3.1000004">AB</tspan><tspan
             id="tspan50"
             y="25.799999"
             x="24.9 39.999977">22</tspan><tspan
             id="tspan52"
             y="45.599998"
             x="0 3.1000004">AB</tspan><tspan
             id="tspan54"
             y="58.299999"
             x="0 3.1000004">AB</tspan></text>
<text
           id="text68"
           style="font-variant:normal;font-weight:normal;font-size:8px;font-family:Symbol;-inkscape-font-specification:Symbol;writing-mode:lr-tb;fill:#ec008c;fill-opacity:1;fill-rule:nonzero;stroke:none"
           transform="matrix(1,0,0,-1,15,62.4)"><tspan
             id="tspan58"
             y="0"
             x="0 23.200001 44.5 61.799999">=−+−</tspan><tspan
             id="tspan60"
             y="16"
             x="0 19.5 36.299999 50">=−+−</tspan><tspan
             id="tspan62"
             y="31.4"
             x="0 20.700001">=+</tspan><tspan
             id="tspan64"
             y="45.599998"
             x="0 17.6">=+</tspan><tspan
             id="tspan66"
             y="58.299999"
             x="0">=</tspan></text>
</g></g></g></svg>