<?xml version="1.0" encoding="UTF-8" standalone="no"?>
<svg
   xmlns:dc="http://purl.org/dc/elements/1.1/"
   xmlns:cc="http://creativecommons.org/ns#"
   xmlns:rdf="http://www.w3.org/1999/02/22-rdf-syntax-ns#"
   xmlns:svg="http://www.w3.org/2000/svg"
   xmlns="http://www.w3.org/2000/svg"
   viewBox="0 0 132 117.33333"
   height="117.33333"
   width="132"
   xml:space="preserve"
   id="svg2"
   version="1.1"><metadata
     id="metadata8"><rdf:RDF><cc:Work
         rdf:about=""><dc:format>image/svg+xml</dc:format><dc:type
           rdf:resource="http://purl.org/dc/dcmitype/StillImage" /></cc:Work></rdf:RDF></metadata><defs
     id="defs6" /><g
     transform="matrix(1.3333333,0,0,-1.3333333,0,117.33333)"
     id="g10"><g
       transform="scale(0.1)"
       id="g12"><path
         id="path14"
         style="fill:#ec008c;fill-opacity:1;fill-rule:nonzero;stroke:none"
         d="m 216,784.289 10.5,7.91 17.852,-34.996 L 264,860 h 702 v -3.75 H 267.102 L 246.219,747 h -3.821 l -19.855,38.934 -4.965,-3.739" /><path
         id="path16"
         style="fill:#ec008c;fill-opacity:1;fill-rule:nonzero;stroke:none"
         d="m 216,632.34 10.5,6.859 17.879,-30.226 L 264,698 h 588 v -3.75 H 267.012 L 246.238,600 h -3.84 l -19.816,33.504 -5.144,-3.363" /><path
         id="path18"
         style="fill:#ec008c;fill-opacity:1;fill-rule:nonzero;stroke:none"
         d="m 216,477.34 10.5,6.859 17.879,-30.226 L 264,543 h 359 v -3.75 H 267.012 L 246.238,445 h -3.84 l -19.816,33.504 -5.144,-3.363" /><path
         id="path20"
         style="fill:#ec008c;fill-opacity:1;fill-rule:nonzero;stroke:none"
         d="m 216,333.73 10.5,5.668 17.926,-24.8 L 264,388 h 298 v -3.75 H 266.883 L 246.281,307 h -3.883 l -19.753,27.332 -5.399,-2.91" /><path
         id="path22"
         style="fill:#ec008c;fill-opacity:1;fill-rule:nonzero;stroke:none"
         d="m 216,190.73 10.5,5.668 17.926,-24.8 L 264,245 h 137 v -3.75 H 266.883 L 246.281,164 h -3.883 l -19.753,27.332 -5.399,-2.91" /><g
         transform="scale(10)"
         id="g24"><text
           id="text38"
           style="font-variant:normal;font-weight:300;font-size:8px;font-family:UniversLT;-inkscape-font-specification:UniversLT-Light;writing-mode:lr-tb;fill:#ec008c;fill-opacity:1;fill-rule:nonzero;stroke:none"
           transform="matrix(1,0,0,-1,1.7,77.4)"><tspan
             id="tspan26"
             y="0"
             x="0 24.799999 27.099998 42.799999 51 63.299999 65.699997 81.400002 89.299995">d(xx)(yy)</tspan><tspan
             id="tspan28"
             y="16.1"
             x="0 24.799999 27 38.700001 43 55.299999 57.5 61.799999 73.5 78">d(07)(240)</tspan><tspan
             id="tspan30"
             y="31.6"
             x="0 24.799999 31.4 35.700001 48.200001 52.599998">d(7)24</tspan><tspan
             id="tspan32"
             y="45.900002"
             x="0 25.200001 29.5 41.099998 45.399998 49.700001">d49576</tspan><tspan
             id="tspan34"
             y="60.200001"
             x="0 25 29.299999 33.599998">d625</tspan><tspan
             id="tspan36"
             y="73"
             x="0 19.6 23.9">d25</tspan></text>
<text
           id="text62"
           style="font-variant:normal;font-weight:300;font-size:4.625px;font-family:UniversLT;-inkscape-font-specification:UniversLT-Light;writing-mode:lr-tb;fill:#ec008c;fill-opacity:1;fill-rule:nonzero;stroke:none"
           transform="matrix(1,0,0,-1,6,75.4)"><tspan
             id="tspan40"
             y="0"
             x="0 3.0999997 27.100004 42.799984">CDDC</tspan><tspan
             id="tspan42"
             y="-5.5999999"
             x="48.799999">2</tspan><tspan
             id="tspan44"
             y="0"
             x="65.5 81.199982">DC</tspan><tspan
             id="tspan46"
             y="-5.5999999"
             x="87.099998">2</tspan><tspan
             id="tspan48"
             y="16.1"
             x="0 3.0999997">CD</tspan><tspan
             id="tspan50"
             y="10.5"
             x="40.799999 75.800011">22</tspan><tspan
             id="tspan52"
             y="31.6"
             x="0 3.0999997">CD</tspan><tspan
             id="tspan54"
             y="26"
             x="33.5 52.799988">22</tspan><tspan
             id="tspan56"
             y="45.900002"
             x="0 3.0999997">CD</tspan><tspan
             id="tspan58"
             y="60.200001"
             x="0 3.0999997">CD</tspan><tspan
             id="tspan60"
             y="73"
             x="0 3.0999997">CD</tspan></text>
<text
           id="text76"
           style="font-variant:normal;font-weight:normal;font-size:8px;font-family:Symbol;-inkscape-font-specification:Symbol;writing-mode:lr-tb;fill:#ec008c;fill-opacity:1;fill-rule:nonzero;stroke:none"
           transform="matrix(1,0,0,-1,15,77.4)"><tspan
             id="tspan64"
             y="0"
             x="0 23.5 44.299999 61.900002">=−+−</tspan><tspan
             id="tspan66"
             y="16.1"
             x="0 19.5 36.299999 54.299999">=−+−</tspan><tspan
             id="tspan68"
             y="31.6"
             x="0 13.8 29.1">=−+</tspan><tspan
             id="tspan70"
             y="45.900002"
             x="0 22.1">=+</tspan><tspan
             id="tspan72"
             y="60.200001"
             x="0">=</tspan><tspan
             id="tspan74"
             y="73"
             x="0">=</tspan></text>
</g></g></g></svg>